<svg width="52" height="52" viewBox="0 0 52 52" fill="none" xmlns="http://www.w3.org/2000/svg">
<path d="M26.7092 22.3149L36.6061 12.418C37.0702 11.9539 37.0702 11.2014 36.6061 10.7373L26.7092 0.840403C26.2451 0.376284 25.4926 0.376284 25.0285 0.840402L15.1316 10.7373C14.6675 11.2014 14.6675 11.9539 15.1316 12.418L25.0285 22.3149C25.4926 22.779 26.2451 22.779 26.7092 22.3149Z" fill="#93C4FF"/>
<path d="M26.7 22.3056L36.5969 12.4088C37.0559 11.9498 37.0559 11.2057 36.5969 10.7468L26.7 0.849886C26.2411 0.390938 25.497 0.390938 25.038 0.849886L15.1412 10.7468C14.6822 11.2057 14.6822 11.9498 15.1412 12.4088L25.038 22.3056C25.497 22.7646 26.2411 22.7646 26.7 22.3056Z" fill="#93C4FF" stroke="#AAD1FF" stroke-width="0.0369742"/>
<path d="M26.9716 51.1595L36.8685 41.2627C37.3326 40.7985 37.3326 40.0461 36.8685 39.5819L26.9716 29.6851C26.5075 29.221 25.755 29.221 25.2909 29.6851L15.394 39.5819C14.9299 40.0461 14.9299 40.7985 15.394 41.2627L25.2909 51.1595C25.755 51.6237 26.5075 51.6237 26.9716 51.1595Z" fill="#93C4FF"/>
<path d="M26.9622 51.1502L36.8591 41.2533C37.3181 40.7944 37.3181 40.0503 36.8591 39.5913L26.9622 29.6944C26.5033 29.2355 25.7592 29.2355 25.3003 29.6944L15.4034 39.5913C14.9444 40.0503 14.9444 40.7944 15.4034 41.2533L25.3003 51.1502C25.7592 51.6091 26.5033 51.6091 26.9622 51.1502Z" fill="#93C4FF" stroke="#AAD1FF" stroke-width="0.0369742"/>
<path d="M12.4178 36.6061L22.3147 26.7092C22.7788 26.2451 22.7788 25.4926 22.3147 25.0285L12.4178 15.1316C11.9537 14.6675 11.2012 14.6675 10.7371 15.1316L0.840201 25.0285C0.376082 25.4926 0.376082 26.2451 0.840201 26.7092L10.7371 36.6061C11.2012 37.0702 11.9537 37.0702 12.4178 36.6061Z" fill="#17234D"/>
<path d="M12.4086 36.5969L22.3055 26.7C22.7644 26.241 22.7644 25.4969 22.3055 25.038L12.4086 15.1411C11.9497 14.6822 11.2055 14.6822 10.7466 15.1411L0.849726 25.038C0.390778 25.4969 0.39078 26.241 0.849728 26.7L10.7466 36.5969C11.2056 37.0558 11.9497 37.0558 12.4086 36.5969Z" stroke="white" stroke-width="0.0369742"/>
<path d="M41.2627 36.8684L51.1596 26.9716C51.6237 26.5074 51.6237 25.755 51.1596 25.2908L41.2627 15.394C40.7986 14.9298 40.0461 14.9298 39.582 15.394L29.6851 25.2908C29.221 25.755 29.221 26.5074 29.6851 26.9716L39.582 36.8684C40.0461 37.3325 40.7986 37.3325 41.2627 36.8684Z" fill="#2687F8"/>
</svg>
