<svg width="188" height="56" viewBox="0 0 188 56" fill="none" xmlns="http://www.w3.org/2000/svg">
<path d="M26.7092 24.3149L36.6061 14.418C37.0702 13.9539 37.0702 13.2014 36.6061 12.7373L26.7092 2.8404C26.2451 2.37628 25.4926 2.37628 25.0285 2.8404L15.1316 12.7373C14.6675 13.2014 14.6675 13.9539 15.1316 14.418L25.0285 24.3149C25.4926 24.779 26.2451 24.779 26.7092 24.3149Z" fill="#93C4FF"/>
<path d="M26.7 24.3056L36.5969 14.4088C37.0559 13.9498 37.0559 13.2057 36.5969 12.7468L26.7 2.84989C26.2411 2.39094 25.497 2.39094 25.038 2.84989L15.1412 12.7468C14.6822 13.2057 14.6822 13.9498 15.1412 14.4088L25.038 24.3056C25.497 24.7646 26.2411 24.7646 26.7 24.3056Z" fill="#93C4FF" stroke="#AAD1FF" stroke-width="0.0369742"/>
<path d="M26.9716 53.1595L36.8685 43.2627C37.3326 42.7985 37.3326 42.0461 36.8685 41.5819L26.9716 31.6851C26.5075 31.221 25.755 31.221 25.2909 31.6851L15.394 41.5819C14.9299 42.0461 14.9299 42.7985 15.394 43.2627L25.2909 53.1595C25.755 53.6237 26.5075 53.6237 26.9716 53.1595Z" fill="#93C4FF"/>
<path d="M26.9622 53.1502L36.8591 43.2533C37.3181 42.7944 37.3181 42.0503 36.8591 41.5913L26.9622 31.6944C26.5033 31.2355 25.7592 31.2355 25.3003 31.6944L15.4034 41.5913C14.9444 42.0503 14.9444 42.7944 15.4034 43.2533L25.3003 53.1502C25.7592 53.6091 26.5033 53.6091 26.9622 53.1502Z" fill="#93C4FF" stroke="#AAD1FF" stroke-width="0.0369742"/>
<path d="M12.4178 38.6061L22.3147 28.7092C22.7788 28.2451 22.7788 27.4926 22.3147 27.0285L12.4178 17.1316C11.9537 16.6675 11.2012 16.6675 10.7371 17.1316L0.840201 27.0285C0.376082 27.4926 0.376082 28.2451 0.840201 28.7092L10.7371 38.6061C11.2012 39.0702 11.9537 39.0702 12.4178 38.6061Z" fill="#17234D"/>
<path d="M12.4086 38.5969L22.3055 28.7C22.7644 28.241 22.7644 27.4969 22.3055 27.038L12.4086 17.1411C11.9497 16.6822 11.2055 16.6822 10.7466 17.1411L0.849726 27.038C0.390778 27.4969 0.39078 28.241 0.849728 28.7L10.7466 38.5969C11.2056 39.0558 11.9497 39.0558 12.4086 38.5969Z" stroke="white" stroke-width="0.0369742"/>
<path d="M41.2627 38.8684L51.1596 28.9716C51.6237 28.5074 51.6237 27.755 51.1596 27.2908L41.2627 17.394C40.7986 16.9298 40.0461 16.9298 39.582 17.394L29.6851 27.2908C29.221 27.755 29.221 28.5074 29.6851 28.9716L39.582 38.8684C40.0461 39.3325 40.7986 39.3325 41.2627 38.8684Z" fill="#2687F8"/>
<path d="M67.944 5.92C69.416 5.92 70.712 6.152 71.832 6.616C72.968 7.064 73.952 7.728 74.784 8.608L72.792 11.272C72.104 10.552 71.36 10.016 70.56 9.664C69.776 9.296 68.88 9.112 67.872 9.112C67.28 9.112 66.8 9.176 66.432 9.304C66.064 9.432 65.8 9.608 65.64 9.832C65.48 10.056 65.4 10.312 65.4 10.6C65.4 10.936 65.552 11.224 65.856 11.464C66.176 11.688 66.688 11.88 67.392 12.04L70.056 12.64C71.64 13.008 72.8 13.544 73.536 14.248C74.272 14.952 74.64 15.888 74.64 17.056C74.64 18.176 74.352 19.128 73.776 19.912C73.2 20.68 72.408 21.264 71.4 21.664C70.392 22.048 69.24 22.24 67.944 22.24C66.888 22.24 65.88 22.128 64.92 21.904C63.96 21.664 63.096 21.328 62.328 20.896C61.56 20.464 60.912 19.968 60.384 19.408L62.376 16.648C62.776 17.112 63.264 17.528 63.84 17.896C64.432 18.248 65.072 18.528 65.76 18.736C66.464 18.944 67.176 19.048 67.896 19.048C68.456 19.048 68.92 18.992 69.288 18.88C69.672 18.768 69.952 18.6 70.128 18.376C70.304 18.152 70.392 17.888 70.392 17.584C70.392 17.248 70.272 16.968 70.032 16.744C69.792 16.504 69.336 16.304 68.664 16.144L65.736 15.496C64.84 15.288 64.04 15.016 63.336 14.68C62.648 14.328 62.104 13.864 61.704 13.288C61.304 12.696 61.104 11.96 61.104 11.08C61.104 10.088 61.376 9.208 61.92 8.44C62.464 7.656 63.248 7.04 64.272 6.592C65.296 6.144 66.52 5.92 67.944 5.92ZM92.6528 10H96.9248L93.3008 22H88.4048L86.2208 14.632L84.1088 22H79.2368L75.5888 10H79.8848L81.9008 18.856L84.2528 10H88.2848L90.6128 18.856L92.6528 10ZM100.582 8.608C99.7501 8.608 99.1421 8.456 98.7581 8.152C98.3901 7.832 98.2061 7.336 98.2061 6.664C98.2061 5.976 98.3901 5.48 98.7581 5.176C99.1421 4.856 99.7501 4.696 100.582 4.696C101.398 4.696 101.998 4.856 102.382 5.176C102.766 5.48 102.958 5.976 102.958 6.664C102.958 7.336 102.766 7.832 102.382 8.152C101.998 8.456 101.398 8.608 100.582 8.608ZM102.622 10V22H98.5421V10H102.622ZM111.118 4.576C111.775 4.576 112.351 4.648 112.847 4.792C113.343 4.92 113.711 5.072 113.951 5.248L113.543 7.792C113.367 7.68 113.167 7.592 112.943 7.528C112.719 7.464 112.439 7.432 112.103 7.432C111.543 7.432 111.079 7.56 110.711 7.816C110.359 8.072 110.183 8.52 110.183 9.16V10.72L110.423 11.392V22H106.343V8.896C106.343 8.128 106.463 7.472 106.703 6.928C106.959 6.384 107.311 5.936 107.759 5.584C108.207 5.232 108.719 4.976 109.295 4.816C109.871 4.656 110.479 4.576 111.118 4.576ZM113.831 10V12.904H104.423V10H113.831ZM119.66 6.184V17.728C119.66 18.304 119.796 18.72 120.068 18.976C120.356 19.216 120.748 19.336 121.244 19.336C121.628 19.336 121.956 19.296 122.228 19.216C122.516 19.12 122.772 18.984 122.996 18.808L123.428 21.328C123.028 21.616 122.524 21.84 121.916 22C121.308 22.16 120.684 22.24 120.044 22.24C119.132 22.24 118.34 22.112 117.668 21.856C117.012 21.6 116.5 21.192 116.132 20.632C115.78 20.072 115.596 19.328 115.58 18.4V7.312L119.66 6.184ZM123.236 10V12.904H113.516V10H123.236ZM67.272 50.24C66.072 50.24 65.016 49.992 64.104 49.496C63.192 49 62.48 48.288 61.968 47.36C61.472 46.416 61.224 45.296 61.224 44C61.224 42.704 61.472 41.592 61.968 40.664C62.48 39.72 63.184 39 64.08 38.504C64.976 38.008 65.992 37.76 67.128 37.76C68.296 37.76 69.288 38 70.104 38.48C70.92 38.96 71.544 39.616 71.976 40.448C72.408 41.28 72.624 42.224 72.624 43.28C72.624 43.568 72.616 43.84 72.6 44.096C72.584 44.352 72.56 44.576 72.528 44.768H62.88V42.8H71.4L70.128 43.184C70.128 42.096 69.856 41.264 69.312 40.688C68.768 40.096 68.024 39.8 67.08 39.8C66.392 39.8 65.792 39.96 65.28 40.28C64.768 40.6 64.376 41.08 64.104 41.72C63.832 42.344 63.696 43.112 63.696 44.024C63.696 44.92 63.84 45.68 64.128 46.304C64.416 46.928 64.824 47.4 65.352 47.72C65.88 48.04 66.504 48.2 67.224 48.2C68.024 48.2 68.672 48.048 69.168 47.744C69.664 47.44 70.056 47.016 70.344 46.472L72.384 47.432C72.096 48.008 71.704 48.512 71.208 48.944C70.728 49.36 70.152 49.68 69.48 49.904C68.808 50.128 68.072 50.24 67.272 50.24ZM84.147 42.488V44.864H75.963V42.488H84.147ZM91.1466 47.792H99.8826V50H88.5786V34.16H91.1466V47.792ZM107.585 50.24C106.385 50.24 105.329 49.992 104.417 49.496C103.505 49 102.793 48.288 102.281 47.36C101.785 46.416 101.537 45.296 101.537 44C101.537 42.704 101.785 41.592 102.281 40.664C102.793 39.72 103.497 39 104.393 38.504C105.289 38.008 106.305 37.76 107.441 37.76C108.609 37.76 109.601 38 110.417 38.48C111.233 38.96 111.857 39.616 112.289 40.448C112.721 41.28 112.937 42.224 112.937 43.28C112.937 43.568 112.929 43.84 112.913 44.096C112.897 44.352 112.873 44.576 112.841 44.768H103.193V42.8H111.713L110.441 43.184C110.441 42.096 110.169 41.264 109.625 40.688C109.081 40.096 108.337 39.8 107.393 39.8C106.705 39.8 106.105 39.96 105.593 40.28C105.081 40.6 104.689 41.08 104.417 41.72C104.145 42.344 104.009 43.112 104.009 44.024C104.009 44.92 104.153 45.68 104.441 46.304C104.729 46.928 105.137 47.4 105.665 47.72C106.193 48.04 106.817 48.2 107.537 48.2C108.337 48.2 108.985 48.048 109.481 47.744C109.977 47.44 110.369 47.016 110.657 46.472L112.697 47.432C112.409 48.008 112.017 48.512 111.521 48.944C111.041 49.36 110.465 49.68 109.793 49.904C109.121 50.128 108.385 50.24 107.585 50.24ZM123.116 42.296C123.116 41.496 122.892 40.88 122.444 40.448C122.012 40 121.412 39.776 120.644 39.776C119.924 39.776 119.308 39.944 118.796 40.28C118.284 40.616 117.908 41.16 117.668 41.912L115.508 41C115.812 40.024 116.404 39.24 117.284 38.648C118.18 38.056 119.332 37.76 120.74 37.76C121.7 37.76 122.548 37.92 123.284 38.24C124.02 38.544 124.596 39.008 125.012 39.632C125.444 40.256 125.66 41.056 125.66 42.032V47.384C125.66 47.976 125.956 48.272 126.548 48.272C126.836 48.272 127.116 48.232 127.388 48.152L127.244 49.928C126.876 50.104 126.412 50.192 125.852 50.192C125.34 50.192 124.876 50.104 124.46 49.928C124.06 49.736 123.74 49.456 123.5 49.088C123.276 48.704 123.164 48.232 123.164 47.672V47.504L123.692 47.48C123.548 48.104 123.252 48.624 122.804 49.04C122.356 49.44 121.836 49.744 121.243 49.952C120.651 50.144 120.052 50.24 119.444 50.24C118.692 50.24 118.012 50.12 117.404 49.88C116.812 49.64 116.34 49.28 115.988 48.8C115.652 48.304 115.484 47.696 115.484 46.976C115.484 46.08 115.772 45.344 116.348 44.768C116.94 44.192 117.772 43.8 118.844 43.592L123.5 42.68L123.476 44.48L120.092 45.176C119.42 45.304 118.916 45.488 118.58 45.728C118.244 45.968 118.076 46.32 118.076 46.784C118.076 47.232 118.244 47.592 118.58 47.864C118.932 48.12 119.396 48.248 119.972 48.248C120.372 48.248 120.756 48.2 121.124 48.104C121.508 48.008 121.852 47.856 122.156 47.648C122.46 47.424 122.692 47.144 122.852 46.808C123.028 46.456 123.116 46.04 123.116 45.56V42.296ZM129.867 50V38H132.051L132.291 40.16C132.611 39.376 133.083 38.784 133.707 38.384C134.347 37.968 135.131 37.76 136.059 37.76C136.299 37.76 136.539 37.784 136.779 37.832C137.019 37.864 137.219 37.92 137.379 38L137.019 40.256C136.843 40.192 136.643 40.144 136.419 40.112C136.211 40.064 135.923 40.04 135.555 40.04C135.059 40.04 134.571 40.176 134.091 40.448C133.611 40.704 133.211 41.096 132.891 41.624C132.587 42.152 132.435 42.824 132.435 43.64V50H129.867ZM139.805 50V38H142.085L142.253 41.12L141.917 40.784C142.141 40.096 142.461 39.528 142.877 39.08C143.309 38.616 143.813 38.28 144.389 38.072C144.981 37.864 145.605 37.76 146.261 37.76C147.109 37.76 147.869 37.928 148.541 38.264C149.229 38.584 149.773 39.072 150.173 39.728C150.573 40.384 150.773 41.216 150.773 42.224V50H148.205V43.016C148.205 41.832 147.957 41.016 147.461 40.568C146.981 40.104 146.373 39.872 145.637 39.872C145.109 39.872 144.597 40 144.101 40.256C143.605 40.496 143.189 40.888 142.853 41.432C142.533 41.976 142.373 42.704 142.373 43.616V50H139.805ZM155.96 35.984C155.4 35.984 154.968 35.848 154.664 35.576C154.376 35.288 154.232 34.888 154.232 34.376C154.232 33.864 154.376 33.472 154.664 33.2C154.968 32.928 155.4 32.792 155.96 32.792C156.504 32.792 156.92 32.928 157.208 33.2C157.512 33.472 157.664 33.864 157.664 34.376C157.664 34.888 157.512 35.288 157.208 35.576C156.92 35.848 156.504 35.984 155.96 35.984ZM157.232 38V50H154.664V38H157.232ZM161.25 50V38H163.53L163.698 41.12L163.362 40.784C163.586 40.096 163.906 39.528 164.322 39.08C164.754 38.616 165.258 38.28 165.834 38.072C166.426 37.864 167.05 37.76 167.706 37.76C168.554 37.76 169.314 37.928 169.986 38.264C170.674 38.584 171.218 39.072 171.618 39.728C172.018 40.384 172.218 41.216 172.218 42.224V50H169.65V43.016C169.65 41.832 169.402 41.016 168.906 40.568C168.426 40.104 167.818 39.872 167.082 39.872C166.554 39.872 166.042 40 165.546 40.256C165.05 40.496 164.634 40.888 164.298 41.432C163.978 41.976 163.818 42.704 163.818 43.616V50H161.25ZM186.669 35.48L187.077 37.496C187.029 37.496 186.981 37.496 186.933 37.496C186.885 37.48 186.837 37.472 186.789 37.472C186.021 37.472 185.437 37.64 185.037 37.976C184.637 38.296 184.437 38.768 184.437 39.392L183.189 38.816C183.189 38.176 183.325 37.608 183.597 37.112C183.869 36.6 184.253 36.2 184.749 35.912C185.261 35.624 185.837 35.48 186.477 35.48C186.509 35.48 186.541 35.48 186.573 35.48C186.605 35.48 186.637 35.48 186.669 35.48ZM182.877 48.128C184.093 48.128 185.037 48.4 185.709 48.944C186.381 49.472 186.717 50.208 186.717 51.152C186.717 51.984 186.453 52.696 185.925 53.288C185.397 53.896 184.677 54.36 183.765 54.68C182.869 55 181.837 55.16 180.669 55.16C178.701 55.16 177.245 54.856 176.301 54.248C175.357 53.64 174.885 52.88 174.885 51.968C174.885 51.328 175.109 50.768 175.557 50.288C176.021 49.808 176.797 49.536 177.885 49.472L177.741 49.856C177.069 49.712 176.525 49.456 176.109 49.088C175.709 48.704 175.509 48.168 175.509 47.48C175.509 46.792 175.773 46.208 176.301 45.728C176.829 45.248 177.573 44.968 178.533 44.888L179.877 45.536H179.589C178.853 45.6 178.333 45.768 178.029 46.04C177.725 46.312 177.573 46.616 177.573 46.952C177.573 47.352 177.717 47.648 178.005 47.84C178.309 48.032 178.733 48.128 179.277 48.128H182.877ZM180.669 53.24C181.549 53.24 182.269 53.152 182.829 52.976C183.405 52.816 183.829 52.6 184.101 52.328C184.389 52.072 184.533 51.784 184.533 51.464C184.533 51.096 184.381 50.8 184.077 50.576C183.789 50.352 183.261 50.24 182.493 50.24H178.629C178.181 50.24 177.805 50.352 177.501 50.576C177.197 50.816 177.045 51.136 177.045 51.536C177.045 52.064 177.365 52.48 178.005 52.784C178.645 53.088 179.533 53.24 180.669 53.24ZM180.573 37.76C181.629 37.76 182.541 37.928 183.309 38.264C184.093 38.6 184.693 39.072 185.109 39.68C185.541 40.288 185.757 41 185.757 41.816C185.757 42.632 185.541 43.344 185.109 43.952C184.693 44.56 184.093 45.032 183.309 45.368C182.541 45.704 181.629 45.872 180.573 45.872C178.909 45.872 177.629 45.504 176.733 44.768C175.853 44.016 175.413 43.032 175.413 41.816C175.413 41 175.629 40.288 176.061 39.68C176.493 39.072 177.093 38.6 177.861 38.264C178.645 37.928 179.549 37.76 180.573 37.76ZM180.573 39.56C179.837 39.56 179.221 39.768 178.725 40.184C178.245 40.584 178.005 41.128 178.005 41.816C178.005 42.504 178.245 43.056 178.725 43.472C179.221 43.888 179.837 44.096 180.573 44.096C181.325 44.096 181.941 43.888 182.421 43.472C182.917 43.056 183.165 42.504 183.165 41.816C183.165 41.128 182.917 40.584 182.421 40.184C181.941 39.768 181.325 39.56 180.573 39.56Z" fill="#004BB0"/>
</svg>
